#!OML:ASF F:\VICON\USERDATA\INSTALL\rory3\rory3.ASF
:FULLY-SPECIFIED
:DEGREES
356
root 10.4433 15.7722 -8.50615 -175.715 53.7484 -172.127
lowerback 6.84364 1.47536 4.14543
upperback -0.78104 2.38681 1.05343
thorax -4.52933 1.10091 -1.48532
lowerneck -10.7716 -8.97757 -13.5213
upperneck 22.6852 -11.6472 9.75444
head 10.428 -5.3427 4.22135
rclavicle 5.04641e-014 -2.56432e-014
rhumerus -36.9048 0.453768 -86.5686
rradius 32.3155
rwrist 5.78444
rhand -17.2777 13.9026
rfingers 7.12502
rthumb 8.9674 -15.8868
lclavicle 5.04641e-014 -2.56432e-014
lhumerus -36.9406 16.4661 74.5505
lradius 20.9541
lwrist -8.45247
lhand -10.6536 12.7018
lfingers 7.12502
lthumb 15.3542 42.1118
rfemur 11.9223 0.553653 29.3546
rtibia 27.1542
rfoot -9.98176 -10.0824
rtoes -16.6459
lfemur -23.1925 -9.50548 -15.5287
ltibia 29.5632
lfoot -7.56369 16.2323
ltoes -4.8817
357
root 10.5251 15.7843 -8.61094 -175.828 53.7137 -172.368
lowerback 6.64265 1.46749 4.05232
upperback -0.86507 2.35899 1.04471
thorax -4.50806 1.08833 -1.43435
lowerneck -10.7141 -8.99505 -13.5011
upperneck 22.8578 -11.6616 9.66566
head 10.4749 -5.35293 4.18882
rclavicle -3.29237e-016 -2.28602e-014
rhumerus -37.2073 0.468467 -86.5265
rradius 32.0676
rwrist 5.90506
rhand -16.9749 14.583
rfingers 7.12502
rthumb 9.25954 -15.1937
lclavicle -3.29237e-016 -2.28602e-014
lhumerus -37.0522 17.1377 74.0901
lradius 20.56
lwrist -9.18562
lhand -10.6572 12.617
lfingers 7.12502
lthumb 15.3507 42.0272
rfemur 11.1923 0.277256 28.8993
rtibia 28.9576
rfoot -9.03371 -9.84931
rtoes -16.8752
lfemur -22.8723 -9.22212 -15.9726
ltibia 29.7787
lfoot -7.60241 15.7859
ltoes -4.75755
358
root 10.6043 15.7943 -8.71668 -176.115 53.7292 -172.784
lowerback 6.49313 1.48784 3.88588
upperback -0.923659 2.36125 0.978468
thorax -4.48788 1.09159 -1.40624
lowerneck -10.7229 -9.04389 -13.4549
upperneck 23.0404 -11.7316 9.62299
head 10.5469 -5.37954 4.15795
rclavicle 5.03577e-014 1.03368e-014
rhumerus -37.4996 0.459485 -86.5247
rradius 31.9305
rwrist 5.87387
rhand -16.853 13.81
rfingers 7.12502
rthumb 9.37722 -15.9614
lclavicle 5.03577e-014 1.03368e-014
lhumerus -37.1298 17.8156 73.613
lradius 20.2446
lwrist -9.89555
lhand -10.5705 12.4958
lfingers 7.12502
lthumb 15.4343 41.8995
rfemur 10.4029 -0.0128731 28.2658
rtibia 30.8706
rfoot -7.84903 -9.65433
rtoes -16.7844
lfemur -22.4871 -9.03809 -16.528
ltibia 29.9586
lfoot -7.83667 15.7558
ltoes -4.9835
359
root 10.6806 15.8015 -8.81826 -176.338 53.7469 -173.13
lowerback 6.38966 1.50333 3.79613
upperback -0.972934 2.36556 0.902255
thorax -4.4806 1.09377 -1.43281
lowerneck -10.8135 -9.09798 -13.3898
upperneck 23.2294 -11.8074 9.58444
head 10.6369 -5.40487 4.12152
rclavicle -8.47444e-014 -3.08116e-015
rhumerus -37.6949 0.201877 -86.4207
rradius 31.7713
rwrist 6.24409
rhand -16.8692 13.279
rfingers 7.12502
rthumb 9.36158 -16.4931
lclavicle -8.47444e-014 -3.08116e-015
lhumerus -37.1593 18.2167 73.2779
lradius 20.0837
lwrist -10.3525
lhand -10.5241 12.6421
lfingers 7.12502
lthumb 15.4789 42.0424
rfemur 9.53359 -0.296135 27.6494
rtibia 32.8831
rfoot -6.68144 -9.38776
rtoes -14.8256
lfemur -22.118 -8.8696 -17.0292
ltibia 30.1055
lfoot -7.96433 15.7324
ltoes -5.45609
360
root 10.7565 15.8089 -8.91702 -176.682 53.7658 -173.584
lowerback 6.35079 1.48925 3.62693
upperback -1.02506 2.32657 0.812976
thorax -4.5174 1.07532 -1.42651
lowerneck -10.8818 -9.14841 -13.4385
upperneck 23.4086 -11.8808 9.64029
head 10.7336 -5.42974 4.13895
rclavicle 8.44524e-015 -2.18663e-015
rhumerus -37.8779 0.134602 -86.4194
rradius 31.5988
rwrist 6.5438
rhand -16.9055 13.6229
rfingers 7.12502
rthumb 9.32652 -16.1508
lclavicle 8.44524e-015 -2.18663e-015
lhumerus -37.21 18.1837 73.1566
lradius 20.0401
lwrist -10.2533
lhand -10.8503 12.763
lfingers 7.12502
lthumb 15.1647 42.1873
rfemur 8.64039 -0.517133 27.011
rtibia 34.9733
rfoot -5.80123 -8.97254
rtoes -12.103
lfemur -21.7036 -8.61064 -17.6085
ltibia 30.2224
lfoot -8.06422 15.445
ltoes -5.84344
361
root 10.8305 15.8153 -9.01035 -177.094 53.8032 -174.099
lowerback 6.40912 1.46981 3.33829
upperback -1.07699 2.27505 0.724454
thorax -4.6139 1.05274 -1.35457
lowerneck -10.9811 -9.192 -13.4374
upperneck 23.5755 -11.9489 9.6828
head 10.8269 -5.44887 4.14295
rclavicle 1.05325e-014 9.34288e-015
rhumerus -38.0667 0.296881 -86.5954
rradius 31.504
rwrist 6.42987
rhand -16.8974 13.6604
rfingers 7.12502
rthumb 9.33434 -16.113
lclavicle 1.05325e-014 9.34288e-015
lhumerus -37.2197 17.9107 73.1526
lradius 20.0615
lwrist -9.69432
lhand -11.1505 12.8163
lfingers 7.12502
lthumb 14.8755 42.2623
rfemur 7.67107 -0.69206 26.3999
rtibia 37.1306
rfoot -4.72158 -8.5705
rtoes -9.9857
lfemur -21.2818 -8.40611 -18.1806
ltibia 30.3117
lfoot -8.35028 15.1755
ltoes -5.31259
362
root 10.9036 15.8236 -9.10166 -177.454 53.8656 -174.553
lowerback 6.45995 1.45207 3.07824
upperback -1.11371 2.2274 0.640456
thorax -4.68902 1.03237 -1.29364
lowerneck -11.0977 -9.20534 -13.3489
upperneck 23.723 -11.9727 9.65543
head 10.8992 -5.4477 4.11334
rclavicle 7.54667e-014 9.93923e-015
rhumerus -38.2009 0.303252 -86.6865
rradius 31.4353
rwrist 6.61529
rhand -16.8249 13.2327
rfingers 7.12502
rthumb 9.40431 -16.5375
lclavicle 7.54667e-014 9.93923e-015
lhumerus -37.2154 17.6871 73.142
lradius 20.1308
lwrist -9.1474
lhand -11.0269 12.8555
lfingers 7.12502
lthumb 14.9946 42.2927
rfemur 6.61576 -0.822338 25.8615
rtibia 39.3598
rfoot -3.30615 -8.57532
rtoes -8.86359
lfemur -20.8416 -8.1476 -18.7062
ltibia 30.3479
lfoot -8.58481 14.9757
ltoes -4.55311
363
root 10.9762 15.829 -9.19422 -177.917 53.951 -175.12
lowerback 6.46695 1.42225 2.74382
upperback -1.13636 2.15772 0.599932
thorax -4.72961 1.00493 -1.14208
lowerneck -11.1112 -9.20736 -13.4443
upperneck 23.7771 -11.9664 9.6966
head 10.9312 -5.4474 4.14536
rclavicle -2.87741e-014 1.68967e-015
rhumerus -38.3084 0.250073 -86.5517
rradius 31.3368
rwrist 7.19021
rhand -16.7651 12.9491
rfingers 7.12502
rthumb 9.46196 -16.8185
lclavicle -2.87741e-014 1.68967e-015
lhumerus -37.3325 17.5454 73.2116
lradius 20.2936
lwrist -8.67197
lhand -10.6697 12.8872
lfingers 7.12502
lthumb 15.3387 42.2983
rfemur 5.53455 -0.984091 25.2151
rtibia 41.6407
rfoot -1.80286 -8.76794
rtoes -7.75211
lfemur -20.3398 -7.79233 -19.3342
ltibia 30.3204
lfoot -8.67447 14.7648
ltoes -4.40629
364
root 11.0461 15.8269 -9.28117 -178.581 54.0427 -175.853
lowerback 6.57302 1.40438 2.31279
upperback -1.1268 2.0949 0.502154
thorax -4.79296 0.982539 -0.998693
lowerneck -11.1428 -9.21001 -13.4263
upperneck 23.7951 -11.9696 9.68481
head 10.9424 -5.44765 4.13669
rclavicle -9.00898e-015 -2.48481e-015
rhumerus -38.381 0.217713 -86.4869
rradius 31.199
rwrist 7.50975
rhand -16.8501 13.4018
rfingers 7.12502
rthumb 9.37997 -16.3695
lclavicle -9.00898e-015 -2.48481e-015
lhumerus -37.3899 17.3147 73.2971
lradius 20.5115
lwrist -8.20149
lhand -10.3814 13.0146
lfingers 7.12502
lthumb 15.6163 42.4043
rfemur 4.50195 -1.14058 24.4899
rtibia 43.9366
rfoot -0.341458 -8.92375
rtoes -5.99813
lfemur -19.7372 -7.39146 -20.053
ltibia 30.1943
lfoot -8.77384 14.4765
ltoes -4.93251
365
root 11.1166 15.8257 -9.36619 -179.32 54.145 -176.648
lowerback 6.67642 1.40756 1.85644
upperback -1.07487 2.05394 0.356381
thorax -4.80853 0.972048 -0.892018
lowerneck -11.2206 -9.20971 -13.3118
upperneck 23.7594 -11.9831 9.66811
head 10.9362 -5.44489 4.10628
rclavicle -2.34116e-014 -6.95746e-016
rhumerus -38.339 0.0358245 -86.4863
rradius 31.0678
rwrist 7.72154
rhand -16.804 13.7482
rfingers 7.12502
rthumb 9.42444 -16.0211
lclavicle -2.34116e-014 -6.95746e-016
lhumerus -37.3137 16.8733 73.4727
lradius 20.788
lwrist -7.64469
lhand -10.5602 13.1387
lfingers 7.12502
lthumb 15.4441 42.5417
rfemur 3.45757 -1.23666 23.7701
rtibia 46.21
rfoot 1.2336 -9.0027
rtoes -6.31546
lfemur -19.0549 -7.05001 -20.7898
ltibia 29.9658
lfoot -8.82727 14.2516
ltoes -5.19546
366
root 11.1853 15.8292 -9.45045 -180.255 54.2464 -177.734
lowerback 6.77168 1.40906 1.18563
upperback -1.04464 1.99133 0.19414
thorax -4.84894 0.956255 -0.679882
lowerneck -11.2099 -9.19658 -13.2631
upperneck 23.654 -11.986 9.71277
head 10.8945 -5.44039 4.11292
rclavicle -2.69835e-014 -9.24349e-015
rhumerus -38.3476 -0.158961 -86.4541
rradius 31.0777
rwrist 7.94983
rhand -16.56 13.7091
rfingers 7.12502
rthumb 9.65985 -16.0494
lclavicle -2.69835e-014 -9.24349e-015
lhumerus -37.2478 16.308 73.7551
lradius 21.0652
lwrist -6.98307
lhand -11.0841 13.1237
lfingers 7.12502
lthumb 14.9395 42.5649
rfemur 2.30443 -1.27536 22.8804
rtibia 48.429
rfoot 2.85009 -9.12406
rtoes -6.86718
lfemur -18.369 -6.83362 -21.6871
ltibia 29.6463
lfoot -8.86933 14.1603
ltoes -5.19353
367
root 11.2487 15.8313 -9.52982 -181.182 54.3241 -178.86
lowerback 6.92954 1.38466 0.48501
upperback -1.05381 1.89181 0.0337449
thorax -4.96662 0.923009 -0.447251
lowerneck -11.2617 -9.20521 -13.2992
upperneck 23.6818 -12.0094 9.79632
head 10.9265 -5.44339 4.14439
rclavicle 1.2329e-013 1.19271e-014
rhumerus -38.4197 -0.00070549 -86.5634
rradius 31.2114
rwrist 7.8873
rhand -16.4579 13.72
rfingers 7.12502
rthumb 9.75843 -16.0339
lclavicle 1.2329e-013 1.19271e-014
lhumerus -37.171 15.9034 73.9146
lradius 21.2015
lwrist -6.49737
lhand -11.3857 13.0159
lfingers 7.12502
lthumb 14.6489 42.4784
rfemur 1.05689 -1.25049 21.9978
rtibia 50.557
rfoot 4.46888 -9.35509
rtoes -5.55093
lfemur -17.7486 -6.62869 -22.5889
ltibia 29.2802
lfoot -8.7775 14.0616
ltoes -5.11191
368
root 11.3119 15.8291 -9.60747 -182.194 54.3478 -180.035
lowerback 7.06108 1.32447 -0.188889
upperback -0.998905 1.74385 -0.158068
thorax -4.9993 0.866143 -0.254416
lowerneck -11.4077 -9.22815 -13.3738
upperneck 23.7419 -12.0439 9.9008
head 10.9951 -5.45018 4.18498
rclavicle 5.76274e-014 -9.79014e-015
rhumerus -38.3181 0.111573 -86.6737
rradius 31.2021
rwrist 7.98661
rhand -16.7988 13.716
rfingers 7.12502
rthumb 9.42944 -16.053
lclavicle 5.76274e-014 -9.79014e-015
lhumerus -37.0222 15.4305 74.1203
lradius 21.4431
lwrist -5.9393
lhand -11.4167 13.0088
lfingers 7.12502
lthumb 14.6191 42.4735
rfemur -0.103809 -1.2327 21.1116
rtibia 52.5645
rfoot 6.13893 -9.50312
rtoes -3.78816
lfemur -17.0863 -6.53829 -23.5118
ltibia 28.9086
lfoot -8.82715 13.9991
ltoes -4.53337
369
root 11.3805 15.8269 -9.68242 -183.076 54.3444 -181.001
lowerback 7.1862 1.26792 -0.839874
upperback -0.946042 1.60505 -0.288569
thorax -5.02959 0.814413 -0.0112495
lowerneck -11.4142 -9.22634 -13.2844
upperneck 23.6776 -12.0495 9.85784
head 10.9632 -5.4519 4.15208
rclavicle 6.82825e-014 1.19271e-015
rhumerus -38.2211 -0.0682522 -86.6137
rradius 31.0499
rwrist 8.2281
rhand -16.8345 13.8337
rfingers 7.12502
rthumb 9.39507 -15.9369
lclavicle 6.82825e-014 1.19271e-015
lhumerus -36.9701 14.7344 74.4568
lradius 21.8862
lwrist -5.2649
lhand -11.4203 13.2489
lfingers 7.12502
lthumb 14.6156 42.7139
rfemur -1.16316 -1.1501 20.4412
rtibia 54.4492
rfoot 7.75908 -9.87919
rtoes -2.86581
lfemur -16.3762 -6.46771 -24.2779
ltibia 28.5603
lfoot -8.98582 13.925
ltoes -3.74705
